<svg width="355" height="77" viewBox="0 0 355 77" fill="none" xmlns="http://www.w3.org/2000/svg">
<g clip-path="url(#clip0_14_19)">
<path d="M108.455 32.9091H95.6364C95.5455 31.8485 95.303 30.8864 94.9091 30.0227C94.5303 29.1591 94 28.4167 93.3182 27.7955C92.6515 27.1591 91.8409 26.6742 90.8864 26.3409C89.9318 25.9924 88.8485 25.8182 87.6364 25.8182C85.5152 25.8182 83.7197 26.3333 82.25 27.3636C80.7955 28.3939 79.6894 29.8712 78.9318 31.7955C78.1894 33.7197 77.8182 36.0303 77.8182 38.7273C77.8182 41.5758 78.197 43.9621 78.9545 45.8864C79.7273 47.7955 80.8409 49.2348 82.2955 50.2045C83.75 51.1591 85.5 51.6364 87.5455 51.6364C88.7121 51.6364 89.7576 51.4924 90.6818 51.2045C91.6061 50.9015 92.4091 50.4697 93.0909 49.9091C93.7727 49.3485 94.3258 48.6742 94.75 47.8864C95.1894 47.0833 95.4848 46.1818 95.6364 45.1818L108.455 45.2727C108.303 47.2424 107.75 49.25 106.795 51.2955C105.841 53.3258 104.485 55.2045 102.727 56.9318C100.985 58.6439 98.8258 60.0227 96.25 61.0682C93.6742 62.1136 90.6818 62.6364 87.2727 62.6364C83 62.6364 79.1667 61.7197 75.7727 59.8864C72.3939 58.053 69.7197 55.3561 67.75 51.7955C65.7955 48.2348 64.8182 43.8788 64.8182 38.7273C64.8182 33.5455 65.8182 29.1818 67.8182 25.6364C69.8182 22.0758 72.5152 19.3864 75.9091 17.5682C79.303 15.7348 83.0909 14.8182 87.2727 14.8182C90.2121 14.8182 92.9167 15.2197 95.3864 16.0227C97.8561 16.8258 100.023 18 101.886 19.5455C103.75 21.0758 105.25 22.9621 106.386 25.2045C107.523 27.447 108.212 30.0152 108.455 32.9091ZM139.278 30C139.157 28.4848 138.589 27.303 137.574 26.4545C136.574 25.6061 135.051 25.1818 133.006 25.1818C131.703 25.1818 130.634 25.3409 129.801 25.6591C128.983 25.9621 128.377 26.3788 127.983 26.9091C127.589 27.4394 127.384 28.0455 127.369 28.7273C127.339 29.2879 127.438 29.7955 127.665 30.25C127.907 30.6894 128.286 31.0909 128.801 31.4545C129.316 31.803 129.975 32.1212 130.778 32.4091C131.581 32.697 132.536 32.9545 133.642 33.1818L137.46 34C140.036 34.5455 142.241 35.2652 144.074 36.1591C145.907 37.053 147.407 38.1061 148.574 39.3182C149.741 40.5152 150.597 41.8636 151.142 43.3636C151.703 44.8636 151.991 46.5 152.006 48.2727C151.991 51.3333 151.225 53.9242 149.71 56.0455C148.195 58.1667 146.028 59.7803 143.21 60.8864C140.407 61.9924 137.036 62.5455 133.097 62.5455C129.051 62.5455 125.521 61.947 122.506 60.75C119.506 59.553 117.172 57.7121 115.506 55.2273C113.854 52.7273 113.021 49.5303 113.006 45.6364H125.006C125.081 47.0606 125.438 48.2576 126.074 49.2273C126.71 50.197 127.604 50.9318 128.756 51.4318C129.922 51.9318 131.309 52.1818 132.915 52.1818C134.263 52.1818 135.392 52.0152 136.301 51.6818C137.21 51.3485 137.9 50.8864 138.369 50.2955C138.839 49.7045 139.081 49.0303 139.097 48.2727C139.081 47.5606 138.847 46.9394 138.392 46.4091C137.953 45.8636 137.225 45.3788 136.21 44.9545C135.195 44.5152 133.824 44.1061 132.097 43.7273L127.46 42.7273C123.339 41.8333 120.089 40.3409 117.71 38.25C115.347 36.1439 114.172 33.2727 114.188 29.6364C114.172 26.6818 114.96 24.0985 116.551 21.8864C118.157 19.6591 120.377 17.9242 123.21 16.6818C126.059 15.4394 129.324 14.8182 133.006 14.8182C136.763 14.8182 140.013 15.447 142.756 16.7045C145.498 17.9621 147.612 19.7348 149.097 22.0227C150.597 24.2955 151.354 26.9545 151.369 30H139.278ZM181.903 30C181.782 28.4848 181.214 27.303 180.199 26.4545C179.199 25.6061 177.676 25.1818 175.631 25.1818C174.328 25.1818 173.259 25.3409 172.426 25.6591C171.608 25.9621 171.002 26.3788 170.608 26.9091C170.214 27.4394 170.009 28.0455 169.994 28.7273C169.964 29.2879 170.063 29.7955 170.29 30.25C170.532 30.6894 170.911 31.0909 171.426 31.4545C171.941 31.803 172.6 32.1212 173.403 32.4091C174.206 32.697 175.161 32.9545 176.267 33.1818L180.085 34C182.661 34.5455 184.866 35.2652 186.699 36.1591C188.532 37.053 190.032 38.1061 191.199 39.3182C192.366 40.5152 193.222 41.8636 193.767 43.3636C194.328 44.8636 194.616 46.5 194.631 48.2727C194.616 51.3333 193.85 53.9242 192.335 56.0455C190.82 58.1667 188.653 59.7803 185.835 60.8864C183.032 61.9924 179.661 62.5455 175.722 62.5455C171.676 62.5455 168.146 61.947 165.131 60.75C162.131 59.553 159.797 57.7121 158.131 55.2273C156.479 52.7273 155.646 49.5303 155.631 45.6364H167.631C167.706 47.0606 168.063 48.2576 168.699 49.2273C169.335 50.197 170.229 50.9318 171.381 51.4318C172.547 51.9318 173.934 52.1818 175.54 52.1818C176.888 52.1818 178.017 52.0152 178.926 51.6818C179.835 51.3485 180.525 50.8864 180.994 50.2955C181.464 49.7045 181.706 49.0303 181.722 48.2727C181.706 47.5606 181.472 46.9394 181.017 46.4091C180.578 45.8636 179.85 45.3788 178.835 44.9545C177.82 44.5152 176.449 44.1061 174.722 43.7273L170.085 42.7273C165.964 41.8333 162.714 40.3409 160.335 38.25C157.972 36.1439 156.797 33.2727 156.812 29.6364C156.797 26.6818 157.585 24.0985 159.176 21.8864C160.782 19.6591 163.002 17.9242 165.835 16.6818C168.684 15.4394 171.949 14.8182 175.631 14.8182C179.388 14.8182 182.638 15.447 185.381 16.7045C188.123 17.9621 190.237 19.7348 191.722 22.0227C193.222 24.2955 193.979 26.9545 193.994 30H181.903ZM199.165 62L206.892 15.4545H212.528L205.619 57H227.256L226.438 62H199.165ZM266.347 27.4545C266.347 24.9545 265.521 23.0606 263.869 21.7727C262.218 20.4697 259.983 19.8182 257.165 19.8182C255.104 19.8182 253.248 20.1515 251.597 20.8182C249.945 21.4848 248.597 22.4015 247.551 23.5682C246.506 24.7348 245.862 26.0606 245.619 27.5455C245.422 28.7879 245.551 29.8561 246.006 30.75C246.46 31.6288 247.104 32.3636 247.938 32.9545C248.786 33.5303 249.695 34.0076 250.665 34.3864C251.634 34.75 252.528 35.0455 253.347 35.2727L257.892 36.5455C259.028 36.8636 260.294 37.303 261.688 37.8636C263.081 38.4242 264.384 39.1894 265.597 40.1591C266.809 41.1136 267.733 42.3409 268.369 43.8409C269.021 45.3409 269.165 47.1818 268.801 49.3636C268.377 51.8788 267.339 54.1515 265.688 56.1818C264.051 58.2121 261.884 59.8258 259.188 61.0227C256.506 62.2197 253.377 62.8182 249.801 62.8182C246.468 62.8182 243.665 62.2803 241.392 61.2045C239.134 60.1288 237.468 58.6288 236.392 56.7045C235.331 54.7803 234.922 52.5455 235.165 50H240.983C240.831 51.7576 241.18 53.2121 242.028 54.3636C242.877 55.5 244.059 56.3485 245.574 56.9091C247.089 57.4545 248.771 57.7273 250.619 57.7273C252.771 57.7273 254.756 57.3788 256.574 56.6818C258.407 55.9697 259.922 54.9848 261.119 53.7273C262.331 52.4545 263.074 50.9697 263.347 49.2727C263.619 47.7273 263.407 46.4697 262.71 45.5C262.013 44.5303 261.006 43.7424 259.688 43.1364C258.369 42.5303 256.922 42 255.347 41.5455L249.892 39.9091C246.438 38.8636 243.809 37.3712 242.006 35.4318C240.218 33.4924 239.574 30.9545 240.074 27.8182C240.528 25.2121 241.627 22.9394 243.369 21C245.112 19.0455 247.271 17.5303 249.847 16.4545C252.422 15.3636 255.195 14.8182 258.165 14.8182C261.165 14.8182 263.733 15.3636 265.869 16.4545C268.006 17.5303 269.597 19.0227 270.642 20.9318C271.688 22.8258 272.074 25 271.801 27.4545H266.347ZM275.977 62L283.705 15.4545H299.432C303.068 15.4545 305.947 16.0682 308.068 17.2955C310.205 18.5227 311.652 20.2121 312.409 22.3636C313.182 24.5152 313.341 26.9697 312.886 29.7273C312.432 32.4545 311.462 34.8788 309.977 37C308.508 39.1212 306.508 40.7879 303.977 42C301.462 43.2121 298.402 43.8182 294.795 43.8182H282.068L282.977 38.7273H295.523C298.008 38.7273 300.068 38.3636 301.705 37.6364C303.341 36.9091 304.614 35.8712 305.523 34.5227C306.432 33.1742 307.038 31.5758 307.341 29.7273C307.644 27.8485 307.561 26.2197 307.091 24.8409C306.636 23.447 305.705 22.3712 304.295 21.6136C302.902 20.8409 300.947 20.4545 298.432 20.4545H288.523L281.614 62H275.977ZM301.341 41.0909L309.341 62H302.795L294.977 41.0909H301.341ZM348.097 27.4545C348.097 24.9545 347.271 23.0606 345.619 21.7727C343.968 20.4697 341.733 19.8182 338.915 19.8182C336.854 19.8182 334.998 20.1515 333.347 20.8182C331.695 21.4848 330.347 22.4015 329.301 23.5682C328.256 24.7348 327.612 26.0606 327.369 27.5455C327.172 28.7879 327.301 29.8561 327.756 30.75C328.21 31.6288 328.854 32.3636 329.688 32.9545C330.536 33.5303 331.445 34.0076 332.415 34.3864C333.384 34.75 334.278 35.0455 335.097 35.2727L339.642 36.5455C340.778 36.8636 342.044 37.303 343.438 37.8636C344.831 38.4242 346.134 39.1894 347.347 40.1591C348.559 41.1136 349.483 42.3409 350.119 43.8409C350.771 45.3409 350.915 47.1818 350.551 49.3636C350.127 51.8788 349.089 54.1515 347.438 56.1818C345.801 58.2121 343.634 59.8258 340.938 61.0227C338.256 62.2197 335.127 62.8182 331.551 62.8182C328.218 62.8182 325.415 62.2803 323.142 61.2045C320.884 60.1288 319.218 58.6288 318.142 56.7045C317.081 54.7803 316.672 52.5455 316.915 50H322.733C322.581 51.7576 322.93 53.2121 323.778 54.3636C324.627 55.5 325.809 56.3485 327.324 56.9091C328.839 57.4545 330.521 57.7273 332.369 57.7273C334.521 57.7273 336.506 57.3788 338.324 56.6818C340.157 55.9697 341.672 54.9848 342.869 53.7273C344.081 52.4545 344.824 50.9697 345.097 49.2727C345.369 47.7273 345.157 46.4697 344.46 45.5C343.763 44.5303 342.756 43.7424 341.438 43.1364C340.119 42.5303 338.672 42 337.097 41.5455L331.642 39.9091C328.188 38.8636 325.559 37.3712 323.756 35.4318C321.968 33.4924 321.324 30.9545 321.824 27.8182C322.278 25.2121 323.377 22.9394 325.119 21C326.862 19.0455 329.021 17.5303 331.597 16.4545C334.172 15.3636 336.945 14.8182 339.915 14.8182C342.915 14.8182 345.483 15.3636 347.619 16.4545C349.756 17.5303 351.347 19.0227 352.392 20.9318C353.438 22.8258 353.824 25 353.551 27.4545H348.097Z" fill="white"/>
<g clip-path="url(#clip1_14_19)">
<path d="M52.8786 30.4993H48.6058V19.1052C48.6058 17.5942 48.0055 16.1451 46.9371 15.0767C45.8687 14.0083 44.4196 13.4081 42.9087 13.4081H31.5145V9.13525C31.5145 7.24655 30.7642 5.4352 29.4287 4.09968C28.0932 2.76417 26.2818 2.01389 24.3931 2.01389C22.5044 2.01389 20.6931 2.76417 19.3576 4.09968C18.0221 5.4352 17.2718 7.24655 17.2718 9.13525V13.4081H5.8776C4.36664 13.4081 2.91756 14.0083 1.84915 15.0767C0.780735 16.1451 0.180508 17.5942 0.180508 19.1052V29.9296H4.45333C8.72614 29.9296 12.1444 33.3479 12.1444 37.6207C12.1444 41.8935 8.72614 45.3118 4.45333 45.3118H0.180508V56.1362C0.180508 57.6472 0.780735 59.0963 1.84915 60.1647C2.91756 61.2331 4.36664 61.8333 5.8776 61.8333H16.7021V57.5605C16.7021 53.2877 20.1203 49.8694 24.3931 49.8694C28.666 49.8694 32.0842 53.2877 32.0842 57.5605V61.8333H42.9087C44.4196 61.8333 45.8687 61.2331 46.9371 60.1647C48.0055 59.0963 48.6058 57.6472 48.6058 56.1362V44.7421H52.8786C54.7673 44.7421 56.5786 43.9918 57.9142 42.6563C59.2497 41.3207 60 39.5094 60 37.6207C60 35.732 59.2497 33.9206 57.9142 32.5851C56.5786 31.2496 54.7673 30.4993 52.8786 30.4993Z" fill="#3B82F6"/>
</g>
</g>
<defs>
<clipPath id="clip0_14_19">
<rect width="355" height="77" fill="white" transform="matrix(-1 0 0 1 355 0)"/>
</clipPath>
<clipPath id="clip1_14_19">
<rect width="60" height="60" fill="white" transform="translate(0 2)"/>
</clipPath>
</defs>
</svg>
