<svg width="353" height="77" viewBox="0 0 353 77" fill="none" xmlns="http://www.w3.org/2000/svg">
<g clip-path="url(#clip0_17_59)">
<path d="M106.455 32.9091H93.6364C93.5455 31.8485 93.303 30.8864 92.9091 30.0227C92.5303 29.1591 92 28.4167 91.3182 27.7955C90.6515 27.1591 89.8409 26.6742 88.8864 26.3409C87.9318 25.9924 86.8485 25.8182 85.6364 25.8182C83.5152 25.8182 81.7197 26.3333 80.25 27.3636C78.7955 28.3939 77.6894 29.8712 76.9318 31.7955C76.1894 33.7197 75.8182 36.0303 75.8182 38.7273C75.8182 41.5758 76.197 43.9621 76.9545 45.8864C77.7273 47.7955 78.8409 49.2348 80.2955 50.2045C81.75 51.1591 83.5 51.6364 85.5455 51.6364C86.7121 51.6364 87.7576 51.4924 88.6818 51.2045C89.6061 50.9015 90.4091 50.4697 91.0909 49.9091C91.7727 49.3485 92.3258 48.6742 92.75 47.8864C93.1894 47.0833 93.4848 46.1818 93.6364 45.1818L106.455 45.2727C106.303 47.2424 105.75 49.25 104.795 51.2955C103.841 53.3258 102.485 55.2045 100.727 56.9318C98.9848 58.6439 96.8258 60.0227 94.25 61.0682C91.6742 62.1136 88.6818 62.6364 85.2727 62.6364C81 62.6364 77.1667 61.7197 73.7727 59.8864C70.3939 58.053 67.7197 55.3561 65.75 51.7955C63.7955 48.2348 62.8182 43.8788 62.8182 38.7273C62.8182 33.5455 63.8182 29.1818 65.8182 25.6364C67.8182 22.0758 70.5152 19.3864 73.9091 17.5682C77.303 15.7348 81.0909 14.8182 85.2727 14.8182C88.2121 14.8182 90.9167 15.2197 93.3864 16.0227C95.8561 16.8258 98.0227 18 99.8864 19.5455C101.75 21.0758 103.25 22.9621 104.386 25.2045C105.523 27.447 106.212 30.0152 106.455 32.9091ZM137.278 30C137.157 28.4848 136.589 27.303 135.574 26.4545C134.574 25.6061 133.051 25.1818 131.006 25.1818C129.703 25.1818 128.634 25.3409 127.801 25.6591C126.983 25.9621 126.377 26.3788 125.983 26.9091C125.589 27.4394 125.384 28.0455 125.369 28.7273C125.339 29.2879 125.438 29.7955 125.665 30.25C125.907 30.6894 126.286 31.0909 126.801 31.4545C127.316 31.803 127.975 32.1212 128.778 32.4091C129.581 32.697 130.536 32.9545 131.642 33.1818L135.46 34C138.036 34.5455 140.241 35.2652 142.074 36.1591C143.907 37.053 145.407 38.1061 146.574 39.3182C147.741 40.5152 148.597 41.8636 149.142 43.3636C149.703 44.8636 149.991 46.5 150.006 48.2727C149.991 51.3333 149.225 53.9242 147.71 56.0455C146.195 58.1667 144.028 59.7803 141.21 60.8864C138.407 61.9924 135.036 62.5455 131.097 62.5455C127.051 62.5455 123.521 61.947 120.506 60.75C117.506 59.553 115.172 57.7121 113.506 55.2273C111.854 52.7273 111.021 49.5303 111.006 45.6364H123.006C123.081 47.0606 123.438 48.2576 124.074 49.2273C124.71 50.197 125.604 50.9318 126.756 51.4318C127.922 51.9318 129.309 52.1818 130.915 52.1818C132.263 52.1818 133.392 52.0152 134.301 51.6818C135.21 51.3485 135.9 50.8864 136.369 50.2955C136.839 49.7045 137.081 49.0303 137.097 48.2727C137.081 47.5606 136.847 46.9394 136.392 46.4091C135.953 45.8636 135.225 45.3788 134.21 44.9545C133.195 44.5152 131.824 44.1061 130.097 43.7273L125.46 42.7273C121.339 41.8333 118.089 40.3409 115.71 38.25C113.347 36.1439 112.172 33.2727 112.188 29.6364C112.172 26.6818 112.96 24.0985 114.551 21.8864C116.157 19.6591 118.377 17.9242 121.21 16.6818C124.059 15.4394 127.324 14.8182 131.006 14.8182C134.763 14.8182 138.013 15.447 140.756 16.7045C143.498 17.9621 145.612 19.7348 147.097 22.0227C148.597 24.2955 149.354 26.9545 149.369 30H137.278ZM179.903 30C179.782 28.4848 179.214 27.303 178.199 26.4545C177.199 25.6061 175.676 25.1818 173.631 25.1818C172.328 25.1818 171.259 25.3409 170.426 25.6591C169.608 25.9621 169.002 26.3788 168.608 26.9091C168.214 27.4394 168.009 28.0455 167.994 28.7273C167.964 29.2879 168.063 29.7955 168.29 30.25C168.532 30.6894 168.911 31.0909 169.426 31.4545C169.941 31.803 170.6 32.1212 171.403 32.4091C172.206 32.697 173.161 32.9545 174.267 33.1818L178.085 34C180.661 34.5455 182.866 35.2652 184.699 36.1591C186.532 37.053 188.032 38.1061 189.199 39.3182C190.366 40.5152 191.222 41.8636 191.767 43.3636C192.328 44.8636 192.616 46.5 192.631 48.2727C192.616 51.3333 191.85 53.9242 190.335 56.0455C188.82 58.1667 186.653 59.7803 183.835 60.8864C181.032 61.9924 177.661 62.5455 173.722 62.5455C169.676 62.5455 166.146 61.947 163.131 60.75C160.131 59.553 157.797 57.7121 156.131 55.2273C154.479 52.7273 153.646 49.5303 153.631 45.6364H165.631C165.706 47.0606 166.063 48.2576 166.699 49.2273C167.335 50.197 168.229 50.9318 169.381 51.4318C170.547 51.9318 171.934 52.1818 173.54 52.1818C174.888 52.1818 176.017 52.0152 176.926 51.6818C177.835 51.3485 178.525 50.8864 178.994 50.2955C179.464 49.7045 179.706 49.0303 179.722 48.2727C179.706 47.5606 179.472 46.9394 179.017 46.4091C178.578 45.8636 177.85 45.3788 176.835 44.9545C175.82 44.5152 174.449 44.1061 172.722 43.7273L168.085 42.7273C163.964 41.8333 160.714 40.3409 158.335 38.25C155.972 36.1439 154.797 33.2727 154.812 29.6364C154.797 26.6818 155.585 24.0985 157.176 21.8864C158.782 19.6591 161.002 17.9242 163.835 16.6818C166.684 15.4394 169.949 14.8182 173.631 14.8182C177.388 14.8182 180.638 15.447 183.381 16.7045C186.123 17.9621 188.237 19.7348 189.722 22.0227C191.222 24.2955 191.979 26.9545 191.994 30H179.903ZM197.165 62L204.892 15.4545H210.528L203.619 57H225.256L224.438 62H197.165ZM264.347 27.4545C264.347 24.9545 263.521 23.0606 261.869 21.7727C260.218 20.4697 257.983 19.8182 255.165 19.8182C253.104 19.8182 251.248 20.1515 249.597 20.8182C247.945 21.4848 246.597 22.4015 245.551 23.5682C244.506 24.7348 243.862 26.0606 243.619 27.5455C243.422 28.7879 243.551 29.8561 244.006 30.75C244.46 31.6288 245.104 32.3636 245.938 32.9545C246.786 33.5303 247.695 34.0076 248.665 34.3864C249.634 34.75 250.528 35.0455 251.347 35.2727L255.892 36.5455C257.028 36.8636 258.294 37.303 259.688 37.8636C261.081 38.4242 262.384 39.1894 263.597 40.1591C264.809 41.1136 265.733 42.3409 266.369 43.8409C267.021 45.3409 267.165 47.1818 266.801 49.3636C266.377 51.8788 265.339 54.1515 263.688 56.1818C262.051 58.2121 259.884 59.8258 257.188 61.0227C254.506 62.2197 251.377 62.8182 247.801 62.8182C244.468 62.8182 241.665 62.2803 239.392 61.2045C237.134 60.1288 235.468 58.6288 234.392 56.7045C233.331 54.7803 232.922 52.5455 233.165 50H238.983C238.831 51.7576 239.18 53.2121 240.028 54.3636C240.877 55.5 242.059 56.3485 243.574 56.9091C245.089 57.4545 246.771 57.7273 248.619 57.7273C250.771 57.7273 252.756 57.3788 254.574 56.6818C256.407 55.9697 257.922 54.9848 259.119 53.7273C260.331 52.4545 261.074 50.9697 261.347 49.2727C261.619 47.7273 261.407 46.4697 260.71 45.5C260.013 44.5303 259.006 43.7424 257.688 43.1364C256.369 42.5303 254.922 42 253.347 41.5455L247.892 39.9091C244.438 38.8636 241.809 37.3712 240.006 35.4318C238.218 33.4924 237.574 30.9545 238.074 27.8182C238.528 25.2121 239.627 22.9394 241.369 21C243.112 19.0455 245.271 17.5303 247.847 16.4545C250.422 15.3636 253.195 14.8182 256.165 14.8182C259.165 14.8182 261.733 15.3636 263.869 16.4545C266.006 17.5303 267.597 19.0227 268.642 20.9318C269.688 22.8258 270.074 25 269.801 27.4545H264.347ZM273.977 62L281.705 15.4545H297.432C301.068 15.4545 303.947 16.0682 306.068 17.2955C308.205 18.5227 309.652 20.2121 310.409 22.3636C311.182 24.5152 311.341 26.9697 310.886 29.7273C310.432 32.4545 309.462 34.8788 307.977 37C306.508 39.1212 304.508 40.7879 301.977 42C299.462 43.2121 296.402 43.8182 292.795 43.8182H280.068L280.977 38.7273H293.523C296.008 38.7273 298.068 38.3636 299.705 37.6364C301.341 36.9091 302.614 35.8712 303.523 34.5227C304.432 33.1742 305.038 31.5758 305.341 29.7273C305.644 27.8485 305.561 26.2197 305.091 24.8409C304.636 23.447 303.705 22.3712 302.295 21.6136C300.902 20.8409 298.947 20.4545 296.432 20.4545H286.523L279.614 62H273.977ZM299.341 41.0909L307.341 62H300.795L292.977 41.0909H299.341ZM346.097 27.4545C346.097 24.9545 345.271 23.0606 343.619 21.7727C341.968 20.4697 339.733 19.8182 336.915 19.8182C334.854 19.8182 332.998 20.1515 331.347 20.8182C329.695 21.4848 328.347 22.4015 327.301 23.5682C326.256 24.7348 325.612 26.0606 325.369 27.5455C325.172 28.7879 325.301 29.8561 325.756 30.75C326.21 31.6288 326.854 32.3636 327.688 32.9545C328.536 33.5303 329.445 34.0076 330.415 34.3864C331.384 34.75 332.278 35.0455 333.097 35.2727L337.642 36.5455C338.778 36.8636 340.044 37.303 341.438 37.8636C342.831 38.4242 344.134 39.1894 345.347 40.1591C346.559 41.1136 347.483 42.3409 348.119 43.8409C348.771 45.3409 348.915 47.1818 348.551 49.3636C348.127 51.8788 347.089 54.1515 345.438 56.1818C343.801 58.2121 341.634 59.8258 338.938 61.0227C336.256 62.2197 333.127 62.8182 329.551 62.8182C326.218 62.8182 323.415 62.2803 321.142 61.2045C318.884 60.1288 317.218 58.6288 316.142 56.7045C315.081 54.7803 314.672 52.5455 314.915 50H320.733C320.581 51.7576 320.93 53.2121 321.778 54.3636C322.627 55.5 323.809 56.3485 325.324 56.9091C326.839 57.4545 328.521 57.7273 330.369 57.7273C332.521 57.7273 334.506 57.3788 336.324 56.6818C338.157 55.9697 339.672 54.9848 340.869 53.7273C342.081 52.4545 342.824 50.9697 343.097 49.2727C343.369 47.7273 343.157 46.4697 342.46 45.5C341.763 44.5303 340.756 43.7424 339.438 43.1364C338.119 42.5303 336.672 42 335.097 41.5455L329.642 39.9091C326.188 38.8636 323.559 37.3712 321.756 35.4318C319.968 33.4924 319.324 30.9545 319.824 27.8182C320.278 25.2121 321.377 22.9394 323.119 21C324.862 19.0455 327.021 17.5303 329.597 16.4545C332.172 15.3636 334.945 14.8182 337.915 14.8182C340.915 14.8182 343.483 15.3636 345.619 16.4545C347.756 17.5303 349.347 19.0227 350.392 20.9318C351.438 22.8258 351.824 25 351.551 27.4545H346.097Z" fill="black"/>
<g clip-path="url(#clip1_17_59)">
<path d="M51.0953 31.619H46.9524V20.5714C46.9524 19.1064 46.3704 17.7014 45.3345 16.6655C44.2986 15.6296 42.8936 15.0476 41.4286 15.0476H30.381V10.9048C30.381 9.0735 29.6535 7.31725 28.3586 6.02236C27.0637 4.72746 25.3075 4 23.4762 4C21.645 4 19.8887 4.72746 18.5938 6.02236C17.2989 7.31725 16.5715 9.0735 16.5715 10.9048V15.0476H5.52384C4.05884 15.0476 2.65383 15.6296 1.61792 16.6655C0.582001 17.7014 3.05176e-05 19.1064 3.05176e-05 20.5714V31.0667H4.14289C8.28574 31.0667 11.6 34.381 11.6 38.5238C11.6 42.6667 8.28574 45.981 4.14289 45.981H3.05176e-05V56.4762C3.05176e-05 57.9412 0.582001 59.3462 1.61792 60.3821C2.65383 61.418 4.05884 62 5.52384 62H16.0191V57.8571C16.0191 53.7143 19.3334 50.4 23.4762 50.4C27.6191 50.4 30.9334 53.7143 30.9334 57.8571V62H41.4286C42.8936 62 44.2986 61.418 45.3345 60.3821C46.3704 59.3462 46.9524 57.9412 46.9524 56.4762V45.4286H51.0953C52.9265 45.4286 54.6828 44.7011 55.9777 43.4062C57.2726 42.1113 58 40.3551 58 38.5238C58 36.6926 57.2726 34.9363 55.9777 33.6414C54.6828 32.3465 52.9265 31.619 51.0953 31.619Z" fill="#663399"/>
</g>
</g>
<defs>
<clipPath id="clip0_17_59">
<rect width="353" height="77" fill="white" transform="matrix(-1 0 0 1 353 0)"/>
</clipPath>
<clipPath id="clip1_17_59">
<rect width="58" height="58" fill="white" transform="translate(0 4)"/>
</clipPath>
</defs>
</svg>
