<svg width="330" height="77" viewBox="0 0 330 77" fill="none" xmlns="http://www.w3.org/2000/svg">
<g clip-path="url(#clip0_17_68)">
<path d="M74.8182 62L61.0909 15.4545H75.1818L81.5455 44.0909H81.9091L89.4545 15.4545H100.545L108.091 44.1818H108.455L114.818 15.4545H128.909L115.182 62H103.091L95.1818 36H94.8182L86.9091 62H74.8182ZM133 62V15.4545H166.545V25.6364H145.636V33.6364H164.818V43.8182H145.636V51.8182H166.455V62H133ZM172.812 62V15.4545H192.994C196.54 15.4545 199.517 15.9318 201.926 16.8864C204.35 17.8409 206.176 19.1894 207.403 20.9318C208.646 22.6742 209.267 24.7273 209.267 27.0909C209.267 28.803 208.888 30.3636 208.131 31.7727C207.388 33.1818 206.343 34.3636 204.994 35.3182C203.646 36.2576 202.07 36.9091 200.267 37.2727V37.7273C202.267 37.803 204.085 38.3106 205.722 39.25C207.358 40.1742 208.661 41.4545 209.631 43.0909C210.6 44.7121 211.085 46.6212 211.085 48.8182C211.085 51.3636 210.419 53.6288 209.085 55.6136C207.767 57.5985 205.888 59.1591 203.449 60.2955C201.009 61.4318 198.1 62 194.722 62H172.812ZM185.449 51.9091H191.358C193.479 51.9091 195.07 51.5152 196.131 50.7273C197.191 49.9242 197.722 48.7424 197.722 47.1818C197.722 46.0909 197.472 45.1667 196.972 44.4091C196.472 43.6515 195.759 43.0758 194.835 42.6818C193.926 42.2879 192.828 42.0909 191.54 42.0909H185.449V51.9091ZM185.449 34.2727H190.631C191.737 34.2727 192.714 34.0985 193.562 33.75C194.411 33.4015 195.07 32.9015 195.54 32.25C196.025 31.5833 196.267 30.7727 196.267 29.8182C196.267 28.3788 195.752 27.2803 194.722 26.5227C193.691 25.75 192.388 25.3636 190.812 25.3636H185.449V34.2727ZM215.29 62L223.017 15.4545H228.653L221.744 57H243.381L242.562 62H215.29ZM282.472 27.4545C282.472 24.9545 281.646 23.0606 279.994 21.7727C278.343 20.4697 276.108 19.8182 273.29 19.8182C271.229 19.8182 269.373 20.1515 267.722 20.8182C266.07 21.4848 264.722 22.4015 263.676 23.5682C262.631 24.7348 261.987 26.0606 261.744 27.5455C261.547 28.7879 261.676 29.8561 262.131 30.75C262.585 31.6288 263.229 32.3636 264.062 32.9545C264.911 33.5303 265.82 34.0076 266.79 34.3864C267.759 34.75 268.653 35.0455 269.472 35.2727L274.017 36.5455C275.153 36.8636 276.419 37.303 277.812 37.8636C279.206 38.4242 280.509 39.1894 281.722 40.1591C282.934 41.1136 283.858 42.3409 284.494 43.8409C285.146 45.3409 285.29 47.1818 284.926 49.3636C284.502 51.8788 283.464 54.1515 281.812 56.1818C280.176 58.2121 278.009 59.8258 275.312 61.0227C272.631 62.2197 269.502 62.8182 265.926 62.8182C262.593 62.8182 259.79 62.2803 257.517 61.2045C255.259 60.1288 253.593 58.6288 252.517 56.7045C251.456 54.7803 251.047 52.5455 251.29 50H257.108C256.956 51.7576 257.305 53.2121 258.153 54.3636C259.002 55.5 260.184 56.3485 261.699 56.9091C263.214 57.4545 264.896 57.7273 266.744 57.7273C268.896 57.7273 270.881 57.3788 272.699 56.6818C274.532 55.9697 276.047 54.9848 277.244 53.7273C278.456 52.4545 279.199 50.9697 279.472 49.2727C279.744 47.7273 279.532 46.4697 278.835 45.5C278.138 44.5303 277.131 43.7424 275.812 43.1364C274.494 42.5303 273.047 42 271.472 41.5455L266.017 39.9091C262.563 38.8636 259.934 37.3712 258.131 35.4318C256.343 33.4924 255.699 30.9545 256.199 27.8182C256.653 25.2121 257.752 22.9394 259.494 21C261.237 19.0455 263.396 17.5303 265.972 16.4545C268.547 15.3636 271.32 14.8182 274.29 14.8182C277.29 14.8182 279.858 15.3636 281.994 16.4545C284.131 17.5303 285.722 19.0227 286.767 20.9318C287.813 22.8258 288.199 25 287.926 27.4545H282.472ZM292.102 62L299.83 15.4545H315.557C319.193 15.4545 322.064 16.1061 324.17 17.4091C326.292 18.7121 327.723 20.4773 328.466 22.7045C329.223 24.9318 329.375 27.4242 328.92 30.1818C328.466 32.9091 327.489 35.3939 325.989 37.6364C324.504 39.8788 322.489 41.6667 319.943 43C317.413 44.3333 314.345 45 310.739 45H299.466L300.284 40H311.375C313.86 40 315.936 39.5682 317.602 38.7045C319.269 37.8409 320.572 36.6667 321.511 35.1818C322.451 33.697 323.072 32.0303 323.375 30.1818C323.678 28.303 323.602 26.6364 323.148 25.1818C322.708 23.7121 321.792 22.5606 320.398 21.7273C319.019 20.8788 317.072 20.4545 314.557 20.4545H304.648L297.739 62H292.102Z" fill="black"/>
<g clip-path="url(#clip1_17_68)">
<path d="M51.0953 31.619H46.9524V20.5714C46.9524 19.1064 46.3704 17.7014 45.3345 16.6655C44.2986 15.6296 42.8936 15.0476 41.4286 15.0476H30.381V10.9048C30.381 9.0735 29.6535 7.31725 28.3586 6.02236C27.0637 4.72746 25.3075 4 23.4762 4C21.645 4 19.8887 4.72746 18.5938 6.02236C17.2989 7.31725 16.5715 9.0735 16.5715 10.9048V15.0476H5.52384C4.05884 15.0476 2.65383 15.6296 1.61792 16.6655C0.582001 17.7014 3.05176e-05 19.1064 3.05176e-05 20.5714V31.0667H4.14289C8.28574 31.0667 11.6 34.381 11.6 38.5238C11.6 42.6667 8.28574 45.981 4.14289 45.981H3.05176e-05V56.4762C3.05176e-05 57.9412 0.582001 59.3462 1.61792 60.3821C2.65383 61.418 4.05884 62 5.52384 62H16.0191V57.8571C16.0191 53.7143 19.3334 50.4 23.4762 50.4C27.6191 50.4 30.9334 53.7143 30.9334 57.8571V62H41.4286C42.8936 62 44.2986 61.418 45.3345 60.3821C46.3704 59.3462 46.9524 57.9412 46.9524 56.4762V45.4286H51.0953C52.9265 45.4286 54.6828 44.7011 55.9777 43.4062C57.2726 42.1113 58 40.3551 58 38.5238C58 36.6926 57.2726 34.9363 55.9777 33.6414C54.6828 32.3465 52.9265 31.619 51.0953 31.619Z" fill="url(#paint0_linear_17_68)"/>
</g>
</g>
<defs>
<linearGradient id="paint0_linear_17_68" x1="-2.98023e-07" y1="4" x2="58" y2="62" gradientUnits="userSpaceOnUse">
<stop stop-color="#F97316"/>
<stop offset="0.5" stop-color="#F472B6"/>
<stop offset="1" stop-color="#6366F1"/>
</linearGradient>
<clipPath id="clip0_17_68">
<rect width="330" height="77" fill="white" transform="matrix(-1 0 0 1 330 0)"/>
</clipPath>
<clipPath id="clip1_17_68">
<rect width="58" height="58" fill="white" transform="translate(0 4)"/>
</clipPath>
</defs>
</svg>
